{"title":"WRC 2016 Round 2 Sweden Day 3 Highlights WEBRIP","uid":13541697,"size":415523525,"categoryP":"video","categoryS":"tv_shows","magnet":"?xt=urn:btih:fd21a18d5a55bdeffdafe366ea600e5a57d42c5a&amp;dn=WRC+2016+Round+2+Sweden+Day+3+Highlights+WEBRIP&amp;tr=udp%3A%2F%2Ftracker.leechers-paradise.org%3A6969&amp;tr=udp%3A%2F%2Fzer0day.ch%3A1337&amp;tr=udp%3A%2F%2Fopen.demonii.com%3A1337&amp;tr=udp%3A%2F%2Ftracker.coppersurfer.tk%3A6969&amp;tr=udp%3A%2F%2Fexodus.desync.com%3A6969","seeders":0,"leechers":1,"uploader":null,"files":5,"time":1455493078,"description":"| ___     | | |   |_   _|                       | |      \r\n| |_/ /__ _| | |_   _| | ___  _ __ _ __ ___ _ __ | |_ ___ \r\n|    // _` | | | | | | |/ _ | '__| '__/ _  '_ | __/ __|\r\n| |  (_| | | | |_| | | (_) | |  | | |  __/ | | | |___ \r\n_| ___,_|_|_|__, _/___/|_|  |_|  ___|_| |_|__|___/\r\n                 __/ |                                    \r\n                |___/                                     \r\n-------------------------------------------------------------------------------------\r\n\r\nPLEASE SIGNUP to [url=http://wrcplus.com]http://wrcplus.com[/url] !! this is the Best way to Get your Rally fix! \r\n\r\nWRC Plus Has daily highlights, Live stages! Live radio, Onboard videos, Speical Shows, Some of the Best Motorsports Coverage in the World! Got get it!\r\n\r\n[url=http://wrcplus.com]http://wrcplus.com[/url]\r\n\r\n\r\nPlease help us keep bringing you the Best Rally Content! PLEASE Donate \r\nbitcoin 16QL6SrsY9CqBEb12KooEZEMbvKqyzqqzz\r\n\r\n\r\nMore to Come! Just need to Update our Servers@!\r\n\r\n\r\nEnjoy this Awsome Rally Content! and remember to Signup to wrcplus.com\r\n\r\n[img]https://www.anony.ws/image/JMnd[/img]\r\n[img]https://www.anony.ws/image/JMni[/img]\r\n[img]https://www.anony.ws/image/JMnH[/img]\r\n\r\nGeneral\r\nFormat                                   : MPEG-4\r\nFormat profile                           : Base Media\r\nCodec ID                                 : isom (isom/iso2/avc1/mp41)\r\nFile size                                : 393 MiB\r\nDuration                                 : 26mn 0s\r\nOverall bit rate                         : 2 114 Kbps\r\nRecorded date                            : 0\r\nWriting application                      : Lavf55.19.104\r\nCover                                    : Yes\r\n\r\nVideo\r\nID                                       : 1\r\nFormat                                   : AVC\r\nFormat/Info                              : Advanced Video Codec\r\nFormat profile                           :   \r\nFormat settings, CABAC                   : Yes\r\nFormat settings, ReFrames                : 2 frames\r\nCodec ID                                 : avc1\r\nCodec ID/Info                            : Advanced Video Coding\r\nDuration                                 : 26mn 0s\r\nBit rate                                 : 2 000 Kbps\r\nWidth                                    : 1 280 pixels\r\nHeight                                   : 720 pixels\r\nDisplay aspect ratio                     : 16:9\r\nFrame rate mode                          : Constant\r\nFrame rate                               : 29.970 (29970/1000) fps\r\nColor space                              : YUV\r\nChroma subsampling                       : 4:2:0\r\nBit depth                                : 8 bits\r\nScan type                                : Progressive\r\nBits/(Pixel*Frame)                       : 0.072\r\nStream size                              : 368 MiB (94%)\r\nWriting library                          : x264 core 140 r2377 1ca7bb9\r\nEncoding settings                        : cabac=1 / ref=2 / deblock=1:0:0 / analyse=0x1:0x111 / me=hex / subme=7 / psy=1 / psy_rd=1.00:0.00 / mixed_ref=1 / me_range=16 / chroma_me=1 / trellis=1 / 8x8dct=0 / cqm=0 / deadzone=21,11 / fast_pskip=1 / chroma_qp_offset=-2 / threads=6 / lookahead_threads=1 / sliced_threads=0 / nr=0 / decimate=1 / interlaced=0 / bluray_compat=0 / constrained_intra=0 / bframes=3 / b_pyramid=0 / b_adapt=1 / b_bias=0 / direct=1 / weightb=1 / open_gop=0 / weightp=2 / keyint=250 / keyint_min=25 / scenecut=40 / intra_refresh=0 / rc_lookahead=40 / rc=abr / mbtree=1 / bitrate=2000 / ratetol=1.0 / qcomp=0.60 / qpmin=0 / qpmax=69 / qpstep=4 / ip_ratio=1.40 / aq=1:1.00\r\n\r\nAudio\r\nID                                       : 2\r\nFormat                                   : AAC\r\nFormat/Info                              : Advanced Audio Codec\r\nFormat profile                           : LC\r\nCodec ID                                 : 40\r\nDuration                                 : 26mn 0s\r\nBit rate mode                            : Constant\r\nBit rate                                 : 127 Kbps\r\nChannel(s)                               : 2 channels\r\nChannel positions                        : Front: L R\r\nSampling rate                            : 48.0 KHz\r\nFrame rate                               : 46.875 fps (1024 spf)\r\nCompression mode                         : Lossy\r\nStream size                              : 23.7 MiB (6%)\r\nDefault                                  : Yes\r\nAlternate group                          : 1","torrent":{"xt":"urn:btih:fd21a18d5a55bdeffdafe366ea600e5a57d42c5a","amp;dn":"WRC+2016+Round+2+Sweden+Day+3+Highlights+WEBRIP","amp;tr":["udp%3A%2F%2Ftracker.leechers-paradise.org%3A6969","udp%3A%2F%2Fzer0day.ch%3A1337","udp%3A%2F%2Fopen.demonii.com%3A1337","udp%3A%2F%2Ftracker.coppersurfer.tk%3A6969","udp%3A%2F%2Fexodus.desync.com%3A6969"],"infoHash":"fd21a18d5a55bdeffdafe366ea600e5a57d42c5a","infoHashBuffer":{"type":"Buffer","data":[253,33,161,141,90,85,189,239,253,175,227,102,234,96,14,90,87,212,44,90]},"announce":[],"urlList":[]}}